<svg width="258" height="57" viewBox="0 0 258 57" fill="none" xmlns="http://www.w3.org/2000/svg">
<g id="cippec-h">
<g id="logo">
<g id="cippec">
<path id="Vector" d="M1 34.1999V34.0999C1 21.9999 10 11.8999 22.2 11.8999C30.2 11.8999 34.5 14.7999 38.7 18.6999L37.2 20.1999C33.6 16.7999 29.3 13.7999 22.1 13.7999C11.2 13.7999 3.1 22.9999 3.1 34.0999V34.1999C3.1 45.2999 11.3 54.4999 22.2 54.4999C28.9 54.4999 33.7 51.5999 37.5 47.5999L39 48.9999C34.9 53.0999 29.7 56.3999 22.1 56.3999C10 56.2999 1 46.3999 1 34.1999Z" fill="#1D1D1B"/>
<path id="Vector_2" d="M49.6001 12.6001H51.7001V55.6001H49.6001V12.6001Z" fill="#1D1D1B"/>
<path id="Vector_3" d="M65.7998 12.6001H81.0998C91.1998 12.6001 97.3998 17.4001 97.3998 25.6001V25.7001C97.3998 34.3001 90.4998 39.0001 80.5998 39.0001H67.8998V55.5001H65.7998V12.6001V12.6001ZM80.6998 37.1001C89.5998 37.1001 95.2998 32.9001 95.2998 25.8001V25.7001C95.2998 18.6001 89.7998 14.5001 80.8998 14.5001H67.8998V37.1001H80.6998Z" fill="#1D1D1B"/>
<path id="Vector_4" d="M107.2 12.6001H122.6C132.7 12.6001 138.9 17.4001 138.9 25.6001V25.7001C138.9 34.3001 132 39.0001 122.1 39.0001H109.3V55.5001H107.2V12.6001V12.6001ZM122.1 37.1001C131 37.1001 136.7 32.9001 136.7 25.8001V25.7001C136.7 18.6001 131.2 14.5001 122.3 14.5001H109.2V37.1001H122.1Z" fill="#1D1D1B"/>
<path id="Vector_5" d="M148.2 12.6001H178.5V14.5001H150.3V33.0001H175.8V34.9001H150.3V53.7001H178.8V55.6001H148.2V12.6001V12.6001Z" fill="#1D1D1B"/>
<path id="Vector_6" d="M186.4 34.1999V34.0999C186.4 21.9999 195.4 11.8999 207.6 11.8999C215.6 11.8999 219.9 14.7999 224.1 18.6999L222.6 20.1999C219 16.7999 214.7 13.7999 207.5 13.7999C196.6 13.7999 188.5 22.9999 188.5 34.0999V34.1999C188.5 45.2999 196.7 54.4999 207.6 54.4999C214.3 54.4999 219.1 51.5999 222.9 47.5999L224.4 48.9999C220.3 53.0999 215.1 56.3999 207.5 56.3999C195.3 56.2999 186.4 46.3999 186.4 34.1999Z" fill="#1D1D1B"/>
</g>
<g id="iso">
<path id="Vector_7" d="M257 14.6C257 22.1 250.9 28.2 243.4 28.2C235.9 28.2 229.8 22.1 229.8 14.6C229.8 7.1 235.9 1 243.4 1C250.9 1 257 7.1 257 14.6Z" fill="#8ED0E2"/>
<path id="Vector_8" d="M237.5 21.2V8H242.2C245.3 8 247.2 9.5 247.2 12C247.2 14.6 245.2 16.2 242 16.2H238.2V21.2H237.5ZM242.1 15.4C244.8 15.4 246.4 14.1 246.4 12.1C246.4 10 244.8 8.8 242.1 8.8H238.2V15.4H242.1Z" fill="white"/>
<path id="Vector_9" d="M242.2 8.0999C245.3 8.0999 247.1 9.5999 247.1 11.9999C247.1 14.5999 245 15.9999 242 15.9999H238.1V20.9999H237.5V7.9999H242.2V8.0999ZM238.2 15.4999H242.1C244.8 15.4999 246.5 14.1999 246.5 12.0999C246.5 9.9999 244.8 8.6999 242.1 8.6999H238.1V15.4999H238.2ZM242.2 7.8999H237.6H237.4V8.0999V21.0999V21.2999H237.6H238.2H238.4V21.0999V16.2999H242.1C245.4 16.2999 247.4 14.6999 247.4 12.0999C247.3 9.4999 245.4 7.8999 242.2 7.8999ZM238.4 8.8999H242.2C244.8 8.8999 246.4 10.0999 246.4 12.0999C246.4 14.1999 244.8 15.3999 242.2 15.3999H238.5V8.8999H238.4Z" fill="white"/>
<path id="Vector_10" d="M241.9 21.2V8H246.2C249.3 8 251.2 9.5 251.2 12C251.2 14.6 249.2 16.2 246 16.2H242.6V21.2H241.9ZM246.1 15.4C248.8 15.4 250.4 14.2 250.4 12.1C250.4 10 248.8 8.8 246.2 8.8H242.7V15.4H246.1Z" fill="white"/>
<path id="Vector_11" d="M246.3 8.0999C249.3 8.0999 251.2 9.5999 251.2 11.9999C251.2 14.5999 249.1 15.9999 246.1 15.9999H242.6V20.9999H242V7.9999H246.3V8.0999ZM242.7 15.4999H246.2C248.9 15.4999 250.6 14.1999 250.6 12.0999C250.6 9.9999 248.9 8.6999 246.3 8.6999H242.7V15.4999ZM246.3 7.8999H242H241.8V8.0999V21.0999V21.2999H242H242.6H242.8V21.0999V16.2999H246.1C249.4 16.2999 251.4 14.6999 251.4 12.0999C251.4 9.4999 249.4 7.8999 246.3 7.8999ZM242.9 8.8999H246.3C248.9 8.8999 250.4 10.0999 250.4 12.0999C250.4 14.1999 248.8 15.3999 246.2 15.3999H242.9V8.8999Z" fill="white"/>
</g>
</g>
</g>
</svg>
